<svg width="158" height="160" viewBox="0 0 158 160" fill="none" xmlns="http://www.w3.org/2000/svg">
<path d="M117.395 0C120.711 1.72466 122.37 3.64817 122.37 5.77081L117.395 43.5824C117.395 57.3803 121.508 85.9709 129.733 129.354L139.684 154.229C139.684 155.954 138.29 157.877 135.504 160H131.723C129.07 159.204 125.09 151.045 119.783 135.523C116.334 123.052 112.884 103.814 109.434 77.8108H108.24C100.546 100.63 95.1059 112.438 91.9218 113.234L88.7383 114.03C85.9522 114.03 82.5021 108.591 78.3893 97.7116H76.9968C75.4048 130.48 72.2871 146.865 67.6438 146.866H67.0464C62.801 146.866 60.4789 143.549 60.0808 136.916C63.3976 124.179 65.0566 110.912 65.0566 97.1142L59.6833 44.3786V40.5966C59.6834 35.5554 61.4746 33.0347 65.0566 33.0347C70.2306 33.0349 74.8078 43.1848 78.7879 63.4832C84.6253 81.9241 88.2077 91.8739 89.5344 93.3332C92.5858 88.557 95.6373 80.0658 98.6886 67.8605C101.077 61.6249 103.398 51.8735 105.653 38.6067V33.6321C106.847 11.2108 110.563 0 116.798 0H117.395ZM147.956 69.4549C150.079 69.4549 151.87 71.3783 153.329 75.2257L151.538 89.3546V98.7086C151.538 109.588 153.395 123.85 157.11 141.495C155.783 144.015 153.528 145.276 150.344 145.276C144.905 145.276 141.322 129.355 139.598 97.5139V90.5494C139.598 76.4866 142.384 69.4552 147.956 69.4549ZM22.5817 73.83C27.8885 73.9627 36.8444 83.2501 49.4481 101.691L49.8456 105.075C49.845 108.789 40.757 111.642 22.5817 113.632L21.9854 114.229V115.025C24.7714 126.965 27.6897 132.935 30.741 132.935H33.1295C37.3749 132.935 43.8094 128.358 52.4328 119.204H53.6266C56.28 119.204 58.3366 121.128 59.796 124.975C59.7954 128.16 54.2236 133.666 43.0799 141.493C40.1611 143.218 36.6449 144.478 32.5321 145.274C21.786 145.274 14.2906 135.191 10.0452 115.025C3.94234 114.096 0.889893 111.575 0.889893 107.462C0.89005 104.544 3.14607 102.62 7.6567 101.691V102.487L9.64656 101.691V96.7156C9.64666 81.459 13.9585 73.8302 22.5817 73.83ZM21.1892 95.5219V101.691H21.9854C29.4147 101.426 33.1295 100.63 33.1295 99.3028C29.6802 94.1289 26.5625 90.4141 23.7765 88.1588H21.9854L21.1892 95.5219ZM140.394 41.5936C145.435 42.655 147.956 44.9102 147.956 48.3594C146.629 52.0742 144.506 53.9325 141.588 53.9325C136.679 53.0038 134.224 50.5484 134.224 46.5683C135.551 43.2518 137.608 41.5936 140.394 41.5936Z" fill="#F8CB16"/>
</svg>
