<svg width="159" height="49" viewBox="0 0 159 49" fill="none" xmlns="http://www.w3.org/2000/svg">
<path d="M16.0868 38.2257C16.5528 38.387 16.7999 38.8956 16.6385 39.3617L14.6292 45.1663C14.4679 45.6324 13.9593 45.8794 13.4932 45.7181C13.0272 45.5568 12.7801 45.0481 12.9415 44.5821L14.9507 38.7775C15.1121 38.3114 15.6207 38.0644 16.0868 38.2257Z" fill="white"/>
<path fill-rule="evenodd" clip-rule="evenodd" d="M48.6409 15.4406C48.9905 15.5431 49.2428 15.8476 49.2785 16.2101C50.634 29.9911 46.9305 37.161 42.0371 40.322C39.6166 41.8855 36.9795 42.411 34.6918 42.3058C33.0972 42.2325 31.6125 41.8483 30.471 41.2446C29.5292 41.9044 28.6511 42.4789 27.8698 42.9569C27.4491 43.2143 26.8994 43.0819 26.642 42.6611C26.3846 42.2404 26.517 41.6907 26.9377 41.4333C27.5581 41.0538 28.2434 40.61 28.9753 40.1083C27.9941 38.9977 27.5421 37.3652 27.3496 35.8704C27.1351 34.2046 27.2161 32.4912 27.4168 31.3271C27.5006 30.8411 27.9626 30.515 28.4486 30.5988C28.9346 30.6826 29.2607 31.1446 29.1769 31.6306C29.0055 32.6247 28.93 34.1588 29.121 35.6423C29.3147 37.1469 29.757 38.3965 30.4468 39.0652C32.9523 37.232 35.8122 34.8493 38.4279 32.1241L36.8301 27.5304C36.6681 27.0646 36.9144 26.5556 37.3802 26.3936C37.846 26.2316 38.355 26.4779 38.517 26.9437L39.8008 30.6345C42.8186 27.2184 45.2643 23.4327 46.2197 19.6243C44.5793 20.9158 42.4177 22.2347 39.9329 22.9595C35.786 24.169 33.2241 26.1873 32.5272 26.9475C32.1939 27.311 31.6291 27.3356 31.2655 27.0023C30.9019 26.669 30.8774 26.1041 31.2106 25.7406C32.151 24.7148 35.0066 22.5358 39.4328 21.2449C43.4888 20.0619 46.6486 17.0619 47.6889 15.7442C47.9146 15.4583 48.2914 15.3381 48.6409 15.4406ZM39.6437 33.4365L41.5459 34.3012C41.9949 34.5052 42.5243 34.3067 42.7284 33.8577C42.9325 33.4087 42.734 32.8793 42.285 32.6752L40.9256 32.0573C43.9477 28.6819 46.579 24.7997 47.7665 20.7415C47.978 31.2469 44.691 36.4815 41.068 38.8217C38.9955 40.1605 36.735 40.6118 34.7739 40.5216C33.7727 40.4756 32.8797 40.2908 32.1446 40.0298C34.5408 38.2304 37.1913 35.9816 39.6437 33.4365Z" fill="white"/>
<path fill-rule="evenodd" clip-rule="evenodd" d="M32.9326 1.48355C33.0996 1.9476 32.8589 2.45921 32.3948 2.62627C30.394 3.34656 29.5086 4.48033 29.1396 5.53117C28.7546 6.62756 28.8959 7.74082 29.1363 8.40175C29.3048 8.86526 29.0657 9.37764 28.6022 9.54619C28.1387 9.71473 27.6263 9.47562 27.4578 9.01212C27.1027 8.03584 26.9092 6.49237 27.4544 4.93947C28.0157 3.34102 29.3256 1.83295 31.7898 0.945805C32.2539 0.778749 32.7655 1.01951 32.9326 1.48355Z" fill="white"/>
<path fill-rule="evenodd" clip-rule="evenodd" d="M41.1382 6.02139C35.6204 5.35257 33.881 8.08566 33.6307 9.13704C33.5164 9.61682 33.0349 9.91316 32.5551 9.79893C32.0753 9.68469 31.779 9.20314 31.8932 8.72335C32.3871 6.64916 35.083 3.48832 41.3531 4.24833C41.8427 4.30768 42.1915 4.75271 42.1321 5.24232C42.0728 5.73194 41.6278 6.08074 41.1382 6.02139Z" fill="white"/>
<path fill-rule="evenodd" clip-rule="evenodd" d="M18.2342 28.2282C18.5499 27.8493 19.113 27.7981 19.4919 28.1138C19.9009 28.4546 20.2948 29.1075 20.5666 29.9951C20.8201 30.8227 20.9873 31.915 20.9481 33.3016L24.1717 35.9207C24.3349 36.0533 24.4461 36.2393 24.4856 36.4458L26.4949 46.9388C26.5877 47.4232 26.2702 47.8911 25.7858 47.9838C25.3014 48.0766 24.8335 47.7591 24.7408 47.2747L22.7927 37.1015L19.4733 34.4045C19.2503 34.2233 19.1281 33.9459 19.145 33.659C19.229 32.2312 19.069 31.2043 18.8589 30.5181C18.7536 30.1744 18.6371 29.9204 18.5355 29.7452C18.4848 29.6576 18.4397 29.5931 18.4042 29.5483C18.3703 29.5056 18.3505 29.4877 18.3486 29.486C18.3484 29.4858 18.3485 29.4859 18.3486 29.486C17.9697 29.1702 17.9184 28.607 18.2342 28.2282Z" fill="white"/>
<path fill-rule="evenodd" clip-rule="evenodd" d="M27.4105 27.0405C27.5926 26.995 27.7845 27.008 27.9588 27.0777L34.6564 29.7568C35.1143 29.9399 35.3371 30.4596 35.1539 30.9176C34.9707 31.3755 34.451 31.5982 33.9931 31.415L27.5635 28.8432L23.3786 29.8895C22.9001 30.0091 22.4153 29.7182 22.2956 29.2397C22.176 28.7612 22.4669 28.2764 22.9454 28.1568L27.4105 27.0405Z" fill="white"/>
<path fill-rule="evenodd" clip-rule="evenodd" d="M22.6472 18.467C21.2554 18.2006 19.7256 18.6303 18.6074 19.7434C16.8534 21.4895 16.7761 24.2558 18.4349 25.9221C20.0936 27.5884 22.8602 27.5238 24.6142 25.7778C25.6854 24.7114 26.1313 23.2646 25.9382 21.9201C25.3678 21.5153 24.8249 21.0573 24.316 20.5461C23.6752 19.9024 23.1191 19.205 22.6472 18.467Z" fill="white"/>
<path fill-rule="evenodd" clip-rule="evenodd" d="M38.12 19.6464C38.0456 16.6697 36.2893 10.8055 29.8596 11.1627C21.8224 11.6092 22.7154 19.8697 29.8596 20.9859C35.5749 21.879 37.7479 20.465 38.12 19.6464ZM31.6458 17.8604C32.8788 17.8604 33.8783 16.8608 33.8783 15.6278C33.8783 14.3948 32.8788 13.3953 31.6458 13.3953C30.4128 13.3953 29.4132 14.3948 29.4132 15.6278C29.4132 16.8608 30.4128 17.8604 31.6458 17.8604Z" fill="white"/>
<path fill-rule="evenodd" clip-rule="evenodd" d="M16.4644 33.0417C16.9576 33.0417 17.3574 33.4415 17.3574 33.9347V35.4975C17.3574 35.8606 17.1376 36.1875 16.8013 36.3245L11.1289 38.6355L7.69636 47.4314C7.51706 47.8908 6.99925 48.118 6.5398 47.9387C6.08034 47.7594 5.85323 47.2416 6.03253 46.7821L9.6046 37.6287C9.69369 37.4004 9.87266 37.2187 10.0996 37.1263L15.5714 34.897V33.9347C15.5714 33.4415 15.9712 33.0417 16.4644 33.0417Z" fill="white"/>
<path fill-rule="evenodd" clip-rule="evenodd" d="M3.06905 27.9068C5.77479 25.602 8.70076 25.3447 11.1292 25.8652L14.4554 33.0165V33.5575L8.98358 35.7868C8.75665 35.8792 8.57768 36.0608 8.48859 36.2891L8.19606 37.0387C7.49121 35.9925 6.63725 34.9592 5.62835 34.0434C4.26349 32.8045 2.60988 31.7789 0.667788 31.2334C1.14684 30.0294 1.91482 28.8901 3.06905 27.9068ZM0.176252 32.9507C-0.449607 36.3259 0.715195 39.8649 1.72952 41.7486C3.43447 41.7486 5.10384 41.4347 6.67687 40.9316L7.38478 39.1176C6.65051 37.827 5.66652 36.4901 4.42794 35.3659C3.24408 34.2913 1.83309 33.4134 0.176252 32.9507ZM15.949 31.9343C15.9345 31.921 15.9194 31.9083 15.904 31.896L13.3164 26.3326C13.8582 25.2712 14.8652 24.558 16.0179 24.558C17.7442 24.558 19.1435 26.1573 19.1435 28.1301C19.1435 30.1029 17.7442 31.7022 16.0179 31.7022C15.9876 31.7022 15.9573 31.7017 15.9271 31.7007L15.949 31.9343Z" fill="white"/>
<path d="M34.3247 1.78604C34.3247 2.77244 33.5251 3.57208 32.5387 3.57208C31.5523 3.57208 30.7527 2.77244 30.7527 1.78604C30.7527 0.799636 31.5523 0 32.5387 0C33.5251 0 34.3247 0.799636 34.3247 1.78604Z" fill="white"/>
<path d="M42.8084 4.9116C42.8084 5.89801 42.0088 6.69764 41.0224 6.69764C40.036 6.69764 39.2363 5.89801 39.2363 4.9116C39.2363 3.9252 40.036 3.12557 41.0224 3.12557C42.0088 3.12557 42.8084 3.9252 42.8084 4.9116Z" fill="white"/>
<path d="M51.3486 11.6092C51.3486 12.5956 50.5489 13.3953 49.5625 13.3953C48.5761 13.3953 47.7765 12.5956 47.7765 11.6092C47.7765 10.6228 48.5761 9.82321 49.5625 9.82321C50.5489 9.82321 51.3486 10.6228 51.3486 11.6092Z" fill="white"/>
<path d="M144.386 18.1631C147.415 18.6527 146.318 21.1691 146.191 28.0381C146.511 26.0524 147.001 24.1741 147.722 22.6543C150.717 16.3819 160.215 16.9828 158 41.2783C157.785 43.5666 157.863 48.6389 154.323 48.0186C151.723 47.3488 152.492 44.8163 152.739 42.8672C153.351 38.0351 153.509 32.9624 152.764 28.1367C152.511 26.4902 152.047 21.8576 150.092 22.126C147.516 22.4763 146.501 29.9791 146.535 36.0518C146.672 37.3869 146.855 38.8143 147.099 40.3447C147.417 42.3368 148.949 45.1915 146.67 46.4902C143.525 47.9711 142.561 43.6544 142.175 41.5078C141.123 35.639 140.96 29.4545 141.295 23.5127C141.415 21.366 141.338 17.9119 144.386 18.1631ZM133.199 18.2598C139.328 18.7043 139.499 33.8557 139.529 39.9414C139.54 42.217 140.308 47.0391 136.825 47.0352C134.064 46.8205 134.424 44.0493 134.448 42.0508C134.478 39.447 134.479 36.6626 134.313 33.8936C134.114 33.8485 133.918 33.8054 133.731 33.7754C130.423 33.2409 128.519 33.6294 127.355 33.7754C126.808 38.1224 126.497 42.4655 126.373 44.8955C126.351 45.297 126.488 46.1016 125.881 46.123C125.16 46.0325 125.512 44.7923 125.538 44.3438C125.727 41.1238 125.984 37.4165 126.422 33.793C126.269 33.7642 126.126 33.6979 126.006 33.6006C125.885 33.5032 125.789 33.3773 125.728 33.2344C125.39 32.4318 125.995 31.8867 126.72 31.5176C127.184 28.3341 127.806 25.2921 128.674 22.7998C129.403 20.6961 130.544 18.0773 133.199 18.2598ZM68.0076 18.1494C70.9441 18.626 70.0061 21.0199 69.8279 27.4209C70.0594 25.8419 70.4727 24.295 71.0583 22.8105C73.3488 17.3838 79.922 17.2655 80.6326 29.8877C83.1206 24.9506 87.9693 25.9832 89.6072 30.8174C90.7642 34.2606 90.649 38.1998 90.2283 41.7568C89.9814 43.8648 89.7191 47.3246 86.7205 46.7988C82.8415 45.7985 86.4881 41.6708 85.1208 33.5781C84.9513 32.5714 84.6659 29.8429 83.5046 29.626C82.2961 29.4113 81.4779 30.3838 81.0271 31.3799C80.8962 31.6687 80.7822 31.965 80.6843 32.2666C80.6692 34.497 80.5317 36.7251 80.2722 38.9404C80.0254 41.1494 79.9366 45.4083 76.6501 44.833C76.0693 44.6996 75.5533 44.3666 75.1921 43.8926C74.8311 43.4185 74.6479 42.8327 74.6736 42.2373C74.7509 40.8357 75.1393 39.4147 75.281 38.0088C76.2469 28.4439 74.227 21.9653 73.3318 22.0977C70.9512 22.4497 70.1117 30.1153 70.1589 36.0508C70.2942 37.3838 70.4789 38.807 70.7214 40.3311C71.0391 42.3231 72.5715 45.1788 70.2917 46.4775C67.1474 47.9581 66.1831 43.6418 65.7966 41.4951C64.7448 35.6262 64.5819 29.4409 64.9167 23.499C65.0369 21.3524 64.9599 17.8986 68.0076 18.1494ZM111.718 18.1602C114.772 18.6539 113.635 21.2239 113.521 28.2197C114.642 22.469 117.207 16.6623 121.464 18.7871C126.294 21.1999 125.381 32.9793 120.654 36.3066C121.847 37.6267 122.707 39.3563 123.479 40.8652C124.357 42.5826 124.338 45.2989 122.406 45.8506C119.71 46.3978 118.883 43.4996 117.943 41.0225C117.515 39.9519 116.937 38.9474 116.226 38.0391C115.619 37.2276 114.4 37.2825 113.919 36.499C114.048 37.7033 114.215 38.981 114.431 40.3398C114.749 42.3341 116.281 45.1886 114.002 46.4873C110.855 47.9683 109.893 43.6505 109.507 41.5059C108.455 35.6369 108.292 29.4517 108.627 23.5098C108.747 21.3632 108.67 17.9094 111.718 18.1602ZM94.1667 18.0234C94.7679 18.0508 95.3412 18.2879 95.7859 18.6934C96.2304 19.0988 96.5187 19.6472 96.6013 20.2432C96.7516 21.4388 96.5052 22.7659 96.4451 23.9658C96.0459 31.9638 97.0161 32.0607 96.9324 34.2695C96.9311 34.4107 96.9768 34.5485 97.0632 34.6602C97.1497 34.7719 97.2719 34.8515 97.4089 34.8857C98.3812 35.0742 99.1968 33.6808 99.5789 32.9961C100.74 30.9203 101.367 28.4882 101.766 26.127C101.457 22.102 100.951 20.5883 103.295 19.9443C106.661 19.3004 106.678 23.6456 106.835 25.8545C107.206 31.176 107.107 40.0369 103.632 44.0791C102.95 44.8994 102.053 45.5144 101.043 45.8555C100.032 46.1965 98.9464 46.2509 97.907 46.0117C96.9281 45.7971 95.4998 45.4468 95.7595 44.1416C96.1889 42.6025 98.2033 43.5681 99.1199 42.499C101.086 40.2107 101.509 36.5853 101.747 33.7197C101.869 32.228 101.914 30.8993 101.91 29.708C100.74 34.0291 98.604 38.2192 95.3562 37.5859C90.6789 36.6756 91.1513 27.8941 91.4089 23.1436C91.5227 21.0915 91.2928 18.0452 94.1667 18.0234ZM104.868 21.3564C104.841 21.358 104.815 21.3649 104.791 21.377C104.767 21.389 104.746 21.4062 104.729 21.4268C104.712 21.4474 104.7 21.4713 104.692 21.4971C104.685 21.5228 104.682 21.5496 104.685 21.5762C104.689 21.6027 104.698 21.6284 104.712 21.6514C105.804 23.8347 106.174 31.2194 105.057 34.9609C105.05 34.9853 105.047 35.0108 105.05 35.0361C105.052 35.0617 105.06 35.0868 105.072 35.1094C105.084 35.1318 105.101 35.1519 105.121 35.168C105.141 35.1839 105.164 35.196 105.188 35.2031C105.207 35.2063 105.226 35.2064 105.244 35.2031C105.286 35.2027 105.327 35.1891 105.36 35.1641C105.394 35.139 105.418 35.1035 105.43 35.0635C106.564 31.2597 106.177 23.7168 105.054 21.4756H105.059C105.049 21.4511 105.034 21.4286 105.014 21.4102C104.995 21.3917 104.971 21.3774 104.946 21.3682C104.921 21.359 104.895 21.3549 104.868 21.3564ZM118.405 21.1729C117.347 20.9367 116.473 22.4606 116.095 23.2012C114.312 26.6015 113.725 31.9511 113.736 34.2266C114.38 33.4366 115.469 34.2047 116.312 34.209C118.987 34.2076 122.043 21.9871 118.405 21.1729ZM121.245 20.3135C121.22 20.3181 121.196 20.3277 121.175 20.3418C121.153 20.3559 121.134 20.3741 121.12 20.3955C121.094 20.4372 121.084 20.4877 121.094 20.5361C121.103 20.5847 121.13 20.628 121.17 20.6572C123.759 22.4433 124.085 28.6728 121.768 32.1504C121.74 32.1934 121.73 32.2462 121.74 32.2969C121.75 32.3474 121.779 32.3921 121.822 32.4209C121.855 32.4413 121.893 32.4524 121.931 32.4531C121.963 32.4532 121.995 32.4456 122.023 32.4307C122.051 32.4157 122.075 32.3936 122.093 32.3672C124.555 28.6685 124.181 22.2605 121.39 20.3457C121.37 20.3309 121.346 20.32 121.321 20.3145C121.296 20.3089 121.27 20.3089 121.245 20.3135ZM152.317 20.6738C152.273 20.6977 152.239 20.7382 152.223 20.7861C152.208 20.834 152.212 20.8864 152.234 20.9316C152.256 20.9767 152.295 21.0118 152.342 21.0293C155.336 21.9932 157.444 27.8643 156.231 31.8613C156.224 31.8856 156.221 31.9112 156.223 31.9365C156.226 31.9618 156.233 31.9864 156.245 32.0088C156.257 32.0313 156.273 32.0522 156.293 32.0684C156.312 32.0846 156.336 32.0962 156.36 32.1035C156.379 32.1066 156.399 32.1066 156.418 32.1035C156.459 32.1036 156.5 32.0902 156.534 32.0654C156.567 32.0407 156.593 32.0056 156.605 31.9658C157.895 27.7134 155.688 21.6843 152.462 20.6582C152.413 20.6447 152.361 20.6501 152.317 20.6738ZM132.117 22.4033C131.93 21.9375 130.879 20.5462 130.089 22.1084C129.129 24.0039 128.294 27.4006 127.727 31.125L128.032 31.0342C129.942 30.4997 132.023 30.4464 134.03 30.5859H134.034C133.695 27.6989 133.113 24.8998 132.117 22.4033ZM133.977 19.4893C133.953 19.4965 133.93 19.5083 133.91 19.5244C133.89 19.5405 133.873 19.5605 133.861 19.583C133.849 19.6056 133.841 19.6307 133.839 19.6562C133.836 19.6817 133.838 19.7079 133.845 19.7324C133.853 19.7569 133.865 19.78 133.881 19.7998C133.897 19.8197 133.917 19.8364 133.939 19.8486C137.071 21.5488 137.428 28.3173 137.546 30.5391C137.548 30.589 137.57 30.6363 137.606 30.6709C137.642 30.7055 137.691 30.7251 137.741 30.7256C137.767 30.7248 137.793 30.7188 137.817 30.708C137.841 30.6972 137.862 30.6812 137.88 30.6621C137.897 30.6429 137.912 30.6202 137.921 30.5957C137.93 30.5714 137.933 30.5454 137.932 30.5195H137.936C137.722 26.5656 137.106 21.1237 134.127 19.5049C134.104 19.4926 134.079 19.4851 134.053 19.4824C134.028 19.4797 134.002 19.482 133.977 19.4893ZM75.2078 20.3936C75.1815 20.3991 75.1564 20.4102 75.1345 20.4258C75.1126 20.4414 75.0936 20.4613 75.0798 20.4844C75.0661 20.5074 75.0569 20.533 75.0535 20.5596C75.0501 20.5863 75.0527 20.6138 75.0603 20.6396C75.0679 20.6653 75.0803 20.6894 75.0974 20.71C75.1147 20.7306 75.1368 20.7478 75.1609 20.7598C75.1849 20.7716 75.2113 20.778 75.238 20.7793C77.3846 21.0585 78.7905 24.5687 78.9021 29.9395C78.9038 29.9903 78.9253 30.0387 78.9617 30.0742C78.998 30.1097 79.0466 30.1293 79.0974 30.1299C79.1234 30.1299 79.1496 30.1253 79.1736 30.1152C79.1975 30.1052 79.2189 30.0898 79.2371 30.0713C79.2552 30.0527 79.2695 30.0309 79.2791 30.0068C79.2886 29.9826 79.2933 29.9567 79.2927 29.9307C79.2004 25.5601 78.1011 20.7585 75.2869 20.3936C75.2607 20.3882 75.2339 20.3881 75.2078 20.3936ZM95.0154 19.3047C94.6269 19.0128 93.9419 18.7685 92.8923 19.2471C92.8459 19.269 92.8098 19.3084 92.7917 19.3564C92.7738 19.4045 92.7751 19.4578 92.7957 19.5049C92.8061 19.5284 92.8209 19.5497 92.8396 19.5674C92.8584 19.5851 92.8808 19.5984 92.905 19.6074C92.9291 19.6164 92.9546 19.6212 92.9802 19.6201C93.006 19.619 93.0321 19.6127 93.0554 19.6016C93.7594 19.2839 94.3429 19.2858 94.7722 19.6162C95.4162 20.1078 95.7126 21.3335 95.5066 22.7373C95.501 22.7872 95.5153 22.838 95.5457 22.8779C95.576 22.9176 95.6204 22.9442 95.6697 22.9521H95.7C95.7465 22.9522 95.7915 22.9355 95.8269 22.9053C95.8623 22.875 95.8861 22.8331 95.8933 22.7871C96.1251 21.2265 95.786 19.8886 95.0154 19.3047ZM68.5876 19.2793C68.1583 18.9358 67.5826 18.8801 66.8699 19.1162C66.8246 19.1354 66.7885 19.171 66.7683 19.2158C66.748 19.2608 66.7448 19.3117 66.7605 19.3584C66.7763 19.4052 66.8099 19.4443 66.8533 19.4678C66.8966 19.4911 66.9472 19.4976 66.9949 19.4854C67.5637 19.2943 68.0168 19.3285 68.3367 19.584C68.798 19.9533 69.0086 20.8119 68.8992 21.8828C68.8938 21.9343 68.9086 21.9861 68.9412 22.0264C68.9738 22.0666 69.0215 22.0922 69.073 22.0977H69.0945C69.1425 22.0973 69.1888 22.0792 69.2244 22.0469C69.2599 22.0145 69.282 21.9698 69.2869 21.9219C69.4199 20.7006 69.1628 19.7387 68.5876 19.2793ZM112.283 19.2793C111.854 18.9358 111.276 18.8801 110.565 19.1162C110.52 19.1354 110.483 19.1709 110.463 19.2158C110.442 19.2607 110.44 19.3117 110.456 19.3584C110.472 19.4051 110.504 19.4443 110.548 19.4678C110.591 19.4913 110.642 19.4977 110.69 19.4854C111.259 19.2945 111.709 19.3287 112.031 19.584C112.493 19.9532 112.703 20.8117 112.594 21.8828C112.588 21.9343 112.604 21.9861 112.636 22.0264C112.669 22.0664 112.716 22.0922 112.767 22.0977H112.787C112.835 22.0974 112.883 22.0793 112.919 22.0469C112.955 22.0145 112.977 21.9699 112.982 21.9219C113.115 20.7007 112.858 19.7367 112.283 19.2793ZM145.12 19.0996C144.691 18.7562 144.116 18.7026 143.403 18.9365C143.354 18.953 143.313 18.9878 143.29 19.0342C143.267 19.0807 143.263 19.1353 143.279 19.1846C143.296 19.2336 143.331 19.2738 143.378 19.2969C143.424 19.32 143.478 19.324 143.527 19.3076C144.096 19.1144 144.547 19.1487 144.869 19.4062C145.33 19.7733 145.541 20.634 145.431 21.7051C145.426 21.7566 145.442 21.8084 145.474 21.8486C145.507 21.8888 145.554 21.9145 145.605 21.9199H145.627C145.675 21.9196 145.722 21.9016 145.758 21.8691C145.793 21.8367 145.815 21.792 145.82 21.7441C145.942 20.5227 145.676 19.559 145.109 19.0996H145.12Z" fill="white"/>
</svg>
