<svg width="56" height="56" viewBox="0 0 56 56" fill="none" xmlns="http://www.w3.org/2000/svg">
<path d="M19.4666 2.3999H8.08879C4.9469 2.3999 2.3999 4.9469 2.3999 8.08879V36.5332V47.911C2.3999 51.0529 4.9469 53.5999 8.08879 53.5999H36.5332H47.911C51.0529 53.5999 53.5999 51.0529 53.5999 47.911V19.4666V8.08879C53.5999 4.9469 51.0529 2.3999 47.911 2.3999H19.9999M16.7999 20.4405V17.3205M39.1999 20.4405V17.3205M19.0737 37.6004C22.7221 40.4272 30.9035 40.4272 36.0017 37.6004M26.3999 29.8005L27.0626 29.1543C27.6628 28.5692 27.9999 27.7756 27.9999 26.9482V18.8805" stroke="#F8CB16" stroke-width="4" stroke-linecap="round"/>
</svg>
