<svg width="187" height="56" viewBox="0 0 187 56" fill="none" xmlns="http://www.w3.org/2000/svg">
<path d="M38.1611 52.2178C38.6625 52.2178 39.1435 52.4171 39.498 52.7715C39.8527 53.1261 40.0518 53.6079 40.0518 54.1094C40.0517 54.6108 39.8526 55.0917 39.498 55.4463C39.1435 55.8008 38.6626 56 38.1611 56H1.98926C1.48782 56 1.00695 55.8008 0.652344 55.4463C0.297793 55.0917 0.0987252 54.6108 0.0986328 54.1094C0.0986328 53.6079 0.29771 53.1261 0.652344 52.7715C1.00694 52.4171 1.48789 52.2178 1.98926 52.2178H38.1611ZM19.9775 11.3359C20.8132 11.3359 21.6345 11.5552 22.3584 11.9727L37.5742 20.7637C38.2971 21.181 38.8986 21.7813 39.3164 22.5039C39.7342 23.2266 39.9541 24.0471 39.9551 24.8818V42.4795C39.9547 43.7415 39.453 44.9515 38.5605 45.8438C37.668 46.736 36.4574 47.2373 35.1953 47.2373H34.3184V35.0225C34.3183 34.2617 34.0165 33.5321 33.4785 32.9941C32.9406 32.4563 32.2109 32.1543 31.4502 32.1543C30.6894 32.1543 29.9598 32.4562 29.4219 32.9941C28.8839 33.5321 28.5821 34.2617 28.582 35.0225V47.2373H22.8457V35.0225C22.8457 34.2617 22.5438 33.5321 22.0059 32.9941C21.4679 32.4563 20.7383 32.1543 19.9775 32.1543C19.2168 32.1543 18.4872 32.4562 17.9492 32.9941C17.4113 33.5321 17.1094 34.2617 17.1094 35.0225V47.2373H11.373V35.0225C11.373 34.2617 11.0711 33.5321 10.5332 32.9941C9.99526 32.4563 9.26562 32.1543 8.50488 32.1543C7.74414 32.1543 7.01449 32.4562 6.47656 32.9941C5.93862 33.5321 5.63674 34.2617 5.63672 35.0225V47.2373H4.75781C4.13279 47.2373 3.51393 47.1143 2.93652 46.875C2.35905 46.6357 1.83444 46.2849 1.39258 45.8428C0.950724 45.4006 0.600258 44.8755 0.361328 44.2979C0.12249 43.7203 -0.000400617 43.1015 0 42.4766V24.875C0.00106867 24.0404 0.221894 23.2206 0.639648 22.498C1.05746 21.7755 1.658 21.1751 2.38086 20.7578L17.5967 11.9727C18.3206 11.5553 19.1419 11.336 19.9775 11.3359ZM19.9775 20.6875C19.6009 20.6875 19.2279 20.7621 18.8799 20.9062C18.5318 21.0505 18.2146 21.2618 17.9482 21.5283C17.6819 21.7948 17.4712 22.1118 17.3271 22.46C17.1832 22.808 17.1092 23.1809 17.1094 23.5576C17.1091 24.125 17.2768 24.6804 17.5918 25.1523C17.9068 25.6241 18.3549 25.9917 18.8789 26.209C19.403 26.4263 19.9797 26.4835 20.5361 26.373C21.0927 26.2625 21.6045 25.989 22.0059 25.5879C22.407 25.1868 22.6802 24.6754 22.791 24.1191C22.9017 23.5628 22.8449 22.986 22.6279 22.4619C22.4109 21.9377 22.043 21.49 21.5713 21.1748C21.0995 20.8595 20.5449 20.6904 19.9775 20.6904V20.6875ZM27.6709 0C28.129 0.0306561 28.56 0.22732 28.8838 0.552734C29.2076 0.878203 29.4023 1.31035 29.4307 1.76855V5.7334C29.4147 6.2009 29.2257 6.64631 28.9004 6.98242C28.575 7.31856 28.1358 7.52164 27.6689 7.55273H19.9775C19.4914 7.55037 19.0245 7.36109 18.6748 7.02344C18.3252 6.68573 18.1189 6.22594 18.0996 5.74023V1.77539C18.1287 1.29489 18.3408 0.843559 18.6914 0.513672C19.042 0.183838 19.505 -0.000105427 19.9863 0H27.6709Z" fill="white"/>
<path d="M56.026 46.3361V42.7875C56.3462 43.0772 56.7245 43.3379 57.1611 43.5697C57.6074 43.8014 58.0779 43.9993 58.5727 44.1635C59.0675 44.318 59.5622 44.4387 60.057 44.5256C60.5518 44.6125 61.0078 44.6559 61.4249 44.6559C62.8802 44.6559 63.9619 44.4145 64.6701 43.9317C65.388 43.449 65.747 42.7489 65.747 41.8316C65.747 41.3391 65.6257 40.9143 65.3832 40.557C65.1503 40.1901 64.8205 39.857 64.3936 39.5576C63.9667 39.2583 63.4623 38.9734 62.8802 38.7031C62.3078 38.423 61.6917 38.1334 61.032 37.834C60.3238 37.4575 59.6641 37.076 59.0529 36.6898C58.4417 36.3036 57.9081 35.8787 57.4522 35.4152C57.0059 34.9421 56.6518 34.411 56.3898 33.822C56.1376 33.233 56.0115 32.5426 56.0115 31.7508C56.0115 30.7756 56.2298 29.9307 56.6663 29.2161C57.1126 28.4919 57.6947 27.8981 58.4126 27.4346C59.1402 26.9615 59.9648 26.6139 60.8865 26.3918C61.8081 26.16 62.7492 26.0442 63.7096 26.0442C65.8925 26.0442 67.4835 26.2904 68.4828 26.7828V30.1866C67.2992 29.3368 65.7761 28.912 63.9134 28.912C63.3992 28.912 62.885 28.9603 62.3708 29.0568C61.8664 29.1534 61.4104 29.3127 61.0029 29.5348C60.6052 29.7569 60.2801 30.0417 60.0279 30.3893C59.7757 30.7369 59.6495 31.157 59.6495 31.6494C59.6495 32.1129 59.7466 32.5136 59.9406 32.8516C60.1346 33.1895 60.416 33.4985 60.7846 33.7786C61.163 34.0586 61.619 34.3338 62.1525 34.6041C62.6958 34.8648 63.3216 35.1497 64.0298 35.4587C64.7574 35.8353 65.4414 36.2312 66.0817 36.6464C66.7317 37.0616 67.2992 37.5202 67.7843 38.0223C68.2791 38.5244 68.6671 39.0845 68.9485 39.7025C69.2395 40.3108 69.385 41.006 69.385 41.7881C69.385 42.8406 69.1716 43.729 68.7447 44.4532C68.3179 45.1774 67.7406 45.7664 67.013 46.2202C66.2951 46.674 65.4656 47.0023 64.5246 47.2051C63.5835 47.4079 62.5891 47.5093 61.5413 47.5093C61.1921 47.5093 60.7604 47.4803 60.2462 47.4224C59.7417 47.3741 59.2227 47.2968 58.6891 47.1906C58.1555 47.0941 57.651 46.9734 57.1757 46.8285C56.7003 46.6837 56.3171 46.5195 56.026 46.3361Z" fill="white"/>
<path d="M85.4735 47.1617H81.1951L75.4033 40.0356H75.3451V47.1617H71.9544L72.0478 26.0442H75.4385L75.3451 39.1231H75.4033L80.875 32.3302H84.935L78.7794 39.4852L85.4735 47.1617Z" fill="white"/>
<path d="M92.8014 47.5093C90.5022 47.5093 88.6637 46.8189 87.2861 45.4381C85.9182 44.0476 85.2342 42.2082 85.2342 39.9197C85.2342 37.4285 85.9473 35.4828 87.3734 34.0827C88.8093 32.6826 90.7399 31.9826 93.1652 31.9826C95.4936 31.9826 97.3078 32.6633 98.6078 34.0248C99.9078 35.3863 100.558 37.274 100.558 39.688C100.558 42.0537 99.8545 43.9511 98.4477 45.3801C97.0507 46.7996 95.1686 47.5093 92.8014 47.5093ZM92.9615 34.6621C91.6421 34.6621 90.5992 35.1207 89.8328 36.038C89.0663 36.9554 88.6831 38.2203 88.6831 39.8328C88.6831 41.3874 89.0712 42.6137 89.8473 43.5117C90.6234 44.4001 91.6615 44.8442 92.9615 44.8442C94.2906 44.8442 95.3093 44.4049 96.0175 43.5262C96.7354 42.6475 97.0944 41.3971 97.0944 39.7749C97.0944 38.143 96.7354 36.8829 96.0175 35.9946C95.3093 35.1062 94.2906 34.6621 92.9615 34.6621Z" fill="white"/>
<path d="M106.503 47.1617H103.113V25.2041H106.503V47.1617Z" fill="white"/>
<path d="M121.457 47.1617H118.182V44.8442H118.124C117.096 46.6209 115.587 47.5093 113.598 47.5093C112.133 47.5093 110.984 47.1134 110.15 46.3216C109.325 45.5298 108.913 44.4821 108.913 43.1786C108.913 40.3784 110.533 38.7465 113.773 38.283L118.197 37.6602C118.197 35.5456 117.188 34.4883 115.17 34.4883C113.395 34.4883 111.794 35.0966 110.368 36.3132V33.373C111.939 32.446 113.754 31.9826 115.81 31.9826C119.575 31.9826 121.457 33.8268 121.457 37.5154V47.1617ZM118.197 39.8763L115.068 40.3108C114.098 40.4363 113.366 40.6729 112.871 41.0205C112.386 41.3584 112.143 41.9571 112.143 42.8165C112.143 43.4441 112.366 43.9607 112.813 44.3663C113.269 44.7622 113.875 44.9601 114.632 44.9601C115.66 44.9601 116.509 44.6028 117.178 43.8883C117.857 43.1641 118.197 42.2564 118.197 41.1653V39.8763Z" fill="white"/>
<path d="M137.967 47.1617H134.591V38.8045C134.591 36.0332 133.606 34.6476 131.637 34.6476C130.609 34.6476 129.76 35.0338 129.09 35.8063C128.421 36.5691 128.086 37.5347 128.086 38.7031V47.1617H124.695V32.3302H128.086V34.7924H128.144C129.26 32.9192 130.87 31.9826 132.976 31.9826C134.596 31.9826 135.833 32.5088 136.687 33.5613C137.54 34.6041 137.967 36.1153 137.967 38.0947V47.1617Z" fill="white"/>
<path d="M152.644 47.1617H149.37V44.8442H149.312C148.283 46.6209 146.775 47.5093 144.786 47.5093C143.321 47.5093 142.171 47.1134 141.337 46.3216C140.512 45.5298 140.1 44.4821 140.1 43.1786C140.1 40.3784 141.72 38.7465 144.96 38.283L149.384 37.6602C149.384 35.5456 148.375 34.4883 146.357 34.4883C144.582 34.4883 142.981 35.0966 141.555 36.3132V33.373C143.127 32.446 144.941 31.9826 146.998 31.9826C150.762 31.9826 152.644 33.8268 152.644 37.5154V47.1617ZM149.384 39.8763L146.256 40.3108C145.285 40.4363 144.553 40.6729 144.058 41.0205C143.573 41.3584 143.331 41.9571 143.331 42.8165C143.331 43.4441 143.554 43.9607 144 44.3663C144.456 44.7622 145.062 44.9601 145.819 44.9601C146.847 44.9601 147.696 44.6028 148.366 43.8883C149.045 43.1641 149.384 42.2564 149.384 41.1653V39.8763Z" fill="white"/>
<path d="M159.273 47.1617H155.883V25.2041H159.273V47.1617Z" fill="white"/>
<path d="M175.697 32.3302L168.973 49.537C167.576 52.6076 165.617 54.1429 163.094 54.1429C162.386 54.1429 161.794 54.0801 161.319 53.9546V51.1592C161.853 51.333 162.338 51.4199 162.774 51.4199C164.035 51.4199 164.976 50.8019 165.597 49.566L166.601 47.1327L160.679 32.3302H164.419L167.969 43.1062C168.008 43.2414 168.095 43.5986 168.231 44.178H168.304C168.353 43.9559 168.44 43.6083 168.566 43.1351L172.291 32.3302H175.697Z" fill="white"/>
<path d="M176.127 46.6982V43.5841C177.388 44.5401 178.78 45.018 180.303 45.018C182.341 45.018 183.359 44.4194 183.359 43.222C183.359 42.8841 183.272 42.5992 183.097 42.3675C182.923 42.1261 182.685 41.9137 182.384 41.7302C182.093 41.5467 181.744 41.3826 181.336 41.2378C180.939 41.0929 180.492 40.9288 179.998 40.7453C179.386 40.5039 178.833 40.248 178.339 39.9777C177.854 39.7073 177.446 39.4031 177.116 39.0652C176.796 38.7176 176.554 38.3265 176.389 37.892C176.224 37.4575 176.141 36.9505 176.141 36.3712C176.141 35.6566 176.311 35.029 176.651 34.4883C176.99 33.9379 177.446 33.4792 178.019 33.1123C178.591 32.7357 179.241 32.4557 179.969 32.2722C180.696 32.0791 181.448 31.9826 182.224 31.9826C183.602 31.9826 184.834 32.1902 185.92 32.6054V35.5456C184.873 34.831 183.67 34.4738 182.311 34.4738C181.885 34.4738 181.497 34.5172 181.147 34.6041C180.808 34.691 180.517 34.8117 180.274 34.9662C180.032 35.1207 179.842 35.309 179.707 35.5311C179.571 35.7435 179.503 35.9801 179.503 36.2408C179.503 36.5595 179.571 36.8298 179.707 37.0519C179.842 37.274 180.041 37.4719 180.303 37.6457C180.575 37.8099 180.895 37.9644 181.264 38.1092C181.642 38.2444 182.074 38.3941 182.559 38.5582C183.199 38.8189 183.772 39.0845 184.276 39.3548C184.79 39.6252 185.227 39.9342 185.586 40.2818C185.945 40.6198 186.221 41.0157 186.415 41.4695C186.609 41.9137 186.706 42.4447 186.706 43.0627C186.706 43.8159 186.532 44.4725 186.182 45.0325C185.833 45.5926 185.367 46.0561 184.785 46.423C184.203 46.7899 183.529 47.0603 182.763 47.2341C182.006 47.4175 181.206 47.5093 180.361 47.5093C178.732 47.5093 177.32 47.2389 176.127 46.6982Z" fill="white"/>
</svg>
